# xmcd
#
# Track frame offsets:
#	150
#	16519
#	31304
#	44424
#	56516
#	70911
#	84548
#	86810
#	105527
#	107567
#	121388
#	123850
#	139297
#	153950
#	170592
#	188088
#	204891
#	215934
#
# Disc length: 3125 seconds
#
# Revision: 0
# Processed by: cddbd v1.5.2PL0 Copyright (c) Steve Scherf et al.
# Submitted via: EZCDAudioConverter 2.1.7.1
#
DISCID=f30c3312
DTITLE=V/A - Fallin' Off The Reel V2
DYEAR=1900
DGENRE=
TTITLE0=Bronx River Parkway - La Valla
TTITLE1=Bronx River Parkway - Nora Se Va
TTITLE2=Funky Music Machine - Just A Little While Longer
TTITLE3=Funky Music Machine - I Can't Help Myself
TTITLE4=Black Velvet  - Is It Me You Really Love
TTITLE5=Black Velvet  - An Earthquake's Coming
TTITLE6=El Michels Affair - Phil My Don
TTITLE7=El Michels Affair feat. Raekwon - PJ's
TTITLE8=El Michels Affair - A Little Sloppy (Bonus Beat)
TTITLE9=El Michels Affair - This One's For My Baby
TTITLE10=Quincy Bright - Big Black Hole
TTITLE11=Lee Fields and The Expressions - My World
TTITLE12=Lee Fields and The Expressions - Love Comes And Goes
TTITLE13=Bronx River Parkway - Aqua Con Sol
TTITLE14=Bronx River Parkway - Me Toca
TTITLE15=Timothy McNealy - What's Going On
TTITLE16=Timothy McNealy - I'm Glad You're Mine
TTITLE17=Fabulous Three - Odyssey Revised
EXTD=
EXTT0=
EXTT1=
EXTT2=
EXTT3=
EXTT4=
EXTT5=
EXTT6=
EXTT7=
EXTT8=
EXTT9=
EXTT10=
EXTT11=
EXTT12=
EXTT13=
EXTT14=
EXTT15=
EXTT16=
EXTT17=
PLAYORDER=
